<svg xmlns="http://www.w3.org/2000/svg" xmlns:xlink="http://www.w3.org/1999/xlink" aria-hidden="true" width="25" height="25" style="-ms-transform: rotate(360deg); -webkit-transform: rotate(360deg); transform: rotate(360deg);" preserveAspectRatio="xMidYMid meet"><rect id="backgroundrect" width="100%" height="100%" x="0" y="0" fill="none" stroke="none" class="" style=""/><g class="currentLayer" style=""><title>Layer 1</title><g class=""><path d="M1.7843488565691916,7.239294511704874 H17.698644255190743 c1.7537973074673006,0 3.3198589864147685,-0.8041006311154096 4.370657018268828,-2.0596247023141228 C19.877370055167983,2.3325143320626567 16.437232417864614,0.4958677440881729 12.566194410979211,0.4958677440881729 C7.8263744565215205,0.4958677440881729 3.7300032288455123,3.247220855428773 1.7843488565691916,7.239294511704874 " fill="#F0BF1A" id="svg_1" class=""/><path d="M16.349925257289538,9.112529360614005 H1.0619199527354821 A11.986482504078943,11.986482504078943 0 0 0 0.5778614661173684,12.484200688950017 c0,1.1711607936873383 0.17099755052904103,2.3018642229848743 0.48405848661811485,3.3717554392806903 h15.28800530455405 c1.8357213675830337,0 3.3717554392806903,-1.4985205903715615 3.3717554392806903,-3.3717554392806903 c0,-1.8731507379644516 -1.4985205903715615,-3.3716713283360127 -3.3717554392806903,-3.3716713283360127 " fill="#07A5DE" id="svg_2" class=""/><path d="M22.110263303517435,19.736666893754006 c-1.0441532672245488,-1.2272627937871265 -2.5975983044704156,-2.007560027558847 -4.336760307563859,-2.007560027558847 H1.7845170784585451 C3.730087339790189,21.721264633415934 7.826458567466197,24.47253363381186 12.566194410979211,24.47253363381186 c3.894841404229094,0 7.354324558808253,-1.858599544535271 9.544068892538226,-4.735866740057856 " fill="#3EBEB0" id="svg_3" class=""/><path d="M1.0619199527354821,9.112529360614005 a11.983454510070558,11.983454510070558 0 0 0 0,6.743426767616701 h10.005753867872167 c0.2622579255039587,-1.011518220689739 0.4120595179743096,-2.1354086634684104 0.4120595179743096,-3.3717554392806903 c0,-1.2362626648676023 -0.14980159247034974,-2.360153107646273 -0.41214362891898576,-3.3716713283360127 H1.0620881746248374 z" fill="#231F20" id="svg_4" class=""/><path d="M6.534598568166872,2.106844667493343 c-2.0231205523241558,1.1988332944861844 -3.708956216492162,2.997041180743122 -4.75790380756332,5.132449844211532 h8.841406060703694 c-0.8991459986008125,-2.060465811760897 -2.3227237372648553,-3.783730846310321 -4.083586364085052,-5.132449844211532 " fill="#D7A229" id="svg_5" class=""/><path d="M6.909228715759761,23.04895589514781 c1.7232650345494247,-1.3861483682826294 3.1094134028320544,-3.221869735865663 3.9711300310514432,-5.319849028952655 H1.776694760603553 c1.1238904427786711,2.247864996502019 2.922182439980286,4.12101573446647 5.13253395515621,5.319849028952655 " fill="#019B8F" id="svg_6" class=""/></g></g></svg>