<svg xmlns="http://www.w3.org/2000/svg" width="25" height="25"><rect width="100%" height="100%" fill="none"/><g class="currentLayer"><g><path d="M24.634 12.465c0 3.913-1.847 7.395-4.717 9.62a12.113 12.113 0 0 1-7.452 2.549c-2.782 0-5.346-.934-7.396-2.506a12.147 12.147 0 0 1-4.772-9.663C.297 5.745 5.745.297 12.465.297s12.169 5.448 12.169 12.168z" fill="#f2f2f2"/><path d="M21.306 5.976l-1.39 16.11a12.113 12.113 0 0 1-7.45 2.548c-2.783 0-5.347-.934-7.397-2.506L3.677 5.976h17.629z" fill="#e64c18"/><path fill="#f36518" d="M12.491 7.486v16.775l5.795-1.636L19.58 7.486z"/><path fill="#fff" d="M6.995 9.591l.568 6.729h7.553l-.247 2.78-2.378.643-2.475-.693-.063-1.733H7.647l.289 3.416 4.555 1.288 4.556-1.288.565-6.685H9.658l-.198-2.179 8.34-.044.188-2.234z"/><path d="M7.482 1.095v1.156H6.377V1.095H5.35V4.41h1.027V3.33h1.105v1.08H8.51V1.094zM12.157 1.095h-3.16v1.156h1.028v2.184h1.105V2.251h1.027zM18.04 3.382v-2.26h-1.105V4.434h2.698V3.382zM15.266 1.121l-.77 1.182-.772-1.182H12.62v3.314h1.104V2.791l.771 1.182.77-1.182v1.644h1.105V1.121z"/></g></g></svg>