<svg xmlns="http://www.w3.org/2000/svg" version="1" width="25" height="25"><rect width="100%" height="100%" fill="none"/><g class="currentLayer"><g fill="#e5a228"><path d="M11.721.256c-1 .084-1.722.207-2.56.442a12.246 12.246 0 0 0-6.472 4.46 12.153 12.153 0 0 0-2.294 5.55c-.086.596-.103.841-.114 1.553-.015 1.017.045 1.718.228 2.63a12.24 12.24 0 0 0 10.328 9.69c.92.129 2.093.14 3.061.03a12.222 12.222 0 0 0 8.821-5.441 12.22 12.22 0 0 0 1.358-10.628c-1.056-3.138-3.408-5.768-6.402-7.157-1.276-.592-2.479-.924-3.95-1.09-.294-.033-1.734-.06-2.004-.04zm1.822 1.828c1.929.205 3.712.903 5.227 2.048A10.446 10.446 0 0 1 22.8 10.84c.09.578.116.944.116 1.626 0 .808-.05 1.35-.191 2.047a10.433 10.433 0 0 1-3.359 5.797 10.402 10.402 0 0 1-4.227 2.244c-.938.244-1.64.33-2.64.33a9.06 9.06 0 0 1-1.626-.116 10.407 10.407 0 0 1-5.736-2.92 8.348 8.348 0 0 1-.692-.754 10.55 10.55 0 0 1-1.992-3.807 10.51 10.51 0 0 1-.246-4.535c.274-1.66.933-3.197 1.964-4.57a10.793 10.793 0 0 1 2.043-2.044 10.408 10.408 0 0 1 5.584-2.084 15.761 15.761 0 0 1 1.746.03z"/><path d="M11.372 4.936l-.007.75-.64.007-.642.004v.84h2.177l-.004-1.17-.007-1.168-.435-.007-.438-.004-.004.748zM12.67 4.634l.002.448.42.313c.23.172.436.33.455.35.032.036.01.038-.42.038h-.457v.755h2.199v-.774l-.518-.401a20.469 20.469 0 0 1-.517-.41c0-.002.226-.006.502-.009.274 0 .506-.002.517-.002.009 0 .015-.17.015-.377v-.377H12.67v.446zM6.289 7.637l.043.5a4778.74 4778.74 0 0 1 .517 5.827l.108 1.207c.035.403.15 1.712.259 2.908.105 1.196.2 2.184.209 2.19.008.009.27.086.578.173.308.084.886.245 1.282.355l1.966.548 1.244.347 1.127-.315 1.85-.515 1.401-.39c.373-.104.686-.194.694-.2.009-.007.07-.626.136-1.372.065-.748.134-1.517.15-1.713l.13-1.445.27-3.028.3-3.406c.07-.807.135-1.518.142-1.58l.013-.113h-6.209c-4.061 0-6.21.007-6.21.022zm10.088 2.621c0 .009-.082.934-.183 2.055l-.487 5.466a3.66 3.66 0 0 1-.032.306c-.011.054-.007.052-.537.199-.214.058-.897.248-1.52.42l-1.132.315-1.58-.44c-.868-.241-1.584-.444-1.588-.448-.01-.007-.227-2.354-.227-2.423 0-.005.352-.007.783-.005l.78.007.052.61.054.61.107.03c.06.017.451.123.87.235l.758.205.47-.13c.259-.068.64-.172.847-.228a4.39 4.39 0 0 0 .395-.114c.019-.017.465-5.124.448-5.144a268.78 268.78 0 0 0-2.958-.008H8.748l-.01-.071A25.233 25.233 0 0 1 8.67 11c-.03-.35-.058-.662-.065-.697l-.008-.058h3.888c2.14 0 3.891.007 3.891.013z"/></g><path fill="#f1bf26" d="M12.459 17.418l1.762-.492.451-5.123h-2.336" color="#e5a228"/><path fill="#f1bf26" d="M12.5 19.016l3.156-.901.737-7.87-4.139-.04-.082-1.435 5.451.082-1.025 10.287-4.139 1.312M7.869 5.574l-1.353.86 1.353-.86z" color="#f1bf26"/><path d="M11.323 4.178v1.436M12.253 4.177l.025 2.355h-2.202V5.67h1.316l-.025-1.52M12.684 5.772c.025-.025.91 0 .91 0s-.91-.683-.91-.709v-.911l2.227.05-.05.71h-1.038l1.038.86.025.76h-2.202" color="#f1bf26"/></g></svg>