<svg xmlns="http://www.w3.org/2000/svg" width="25" height="25"><rect width="100%" height="100%" fill="none"></rect><g class="currentLayer"><g><circle cx="12.368" cy="12.43" fill="#0769AD" r="12.529"></circle><g fill="#FFF"><path d="M5.531 8.432c-1.385 1.992-1.214 4.585-.156 6.705.024.049.053.097.078.151.015.035.034.064.049.098l.03.054c.019.034.033.064.053.098.034.059.068.117.103.171.02.034.039.064.058.093.04.059.079.123.118.186l.049.078c.054.084.112.162.171.245l.005.005c.01.015.02.025.03.04.048.068.102.136.156.205l.059.073c.049.059.093.118.142.176.02.02.034.044.054.064.063.078.132.152.2.23l.005.005.01.01c.064.073.132.142.2.215.02.025.045.044.064.064l.162.161c.024.02.044.044.068.064.074.068.147.137.22.2h.005c.015.01.025.025.04.035l.2.171.083.069c.054.044.113.088.167.132l.088.068c.063.044.122.093.186.137.024.02.044.035.068.05.005.004.015.009.02.014.059.044.122.083.186.122.024.02.054.035.078.054.093.059.191.118.289.176.024.015.054.03.078.044.074.04.142.079.216.123l.117.058c.054.025.103.054.152.079.01.005.024.01.034.02l.064.029c.078.039.161.078.244.112.02.01.035.015.054.025.093.044.191.083.284.117l.069.03c.088.034.176.068.269.097.01.005.024.005.034.01.098.034.2.069.299.098.024.005.049.015.073.02.103.034.2.068.308.088 6.705 1.223 8.653-4.028 8.653-4.028-1.634 2.129-4.537 2.692-7.292 2.065a3.644 3.644 0 0 1-.308-.088c-.025-.005-.05-.015-.079-.024-.098-.03-.196-.064-.293-.098-.015-.005-.03-.01-.04-.015-.088-.034-.176-.064-.259-.098l-.073-.03-.284-.117c-.02-.01-.04-.014-.054-.024-.078-.034-.157-.074-.24-.113a.447.447 0 0 1-.068-.034c-.06-.03-.123-.064-.186-.093l-.123-.064c-.073-.039-.147-.078-.22-.122-.024-.015-.049-.024-.073-.04-.098-.058-.191-.117-.29-.175l-.077-.05a4.996 4.996 0 0 1-.206-.136c-.024-.015-.044-.035-.064-.044-.063-.044-.127-.093-.19-.142-.03-.02-.06-.044-.084-.064a4.3 4.3 0 0 1-.176-.137l-.078-.064c-.074-.058-.147-.122-.216-.18-.01-.005-.014-.015-.024-.02l-.23-.206c-.024-.02-.044-.039-.064-.058-.053-.054-.112-.108-.161-.162l-.064-.064a4.176 4.176 0 0 1-.2-.215l-.01-.01c-.069-.078-.137-.151-.206-.23-.02-.02-.034-.044-.054-.063-.049-.06-.097-.123-.146-.181-.02-.02-.035-.045-.054-.069-.059-.073-.113-.152-.172-.225-1.527-2.085-2.075-4.958-.856-7.317"></path><path d="M9.838 6.748c-1.003 1.444-.95 3.377-.166 4.9.132.254.279.503.445.738.152.215.318.47.514.646.073.078.147.157.225.235l.059.059c.073.073.151.142.23.215l.01.01c.088.078.176.152.269.22.02.015.039.034.058.05l.28.205c.004 0 .004.005.01.005l.126.083c.02.014.04.03.06.039.068.044.136.088.205.127.01.005.02.01.03.02.058.034.121.068.185.102l.064.035.127.068c.005.005.015.005.02.01.088.044.176.083.269.127.02.01.039.015.058.025l.22.088.094.034c.068.025.137.05.2.069.03.01.059.02.093.029.098.03.191.069.294.083 5.188.857 6.382-3.127 6.382-3.127-1.077 1.551-3.162 2.29-5.389 1.713-.097-.025-.195-.054-.293-.083l-.088-.03c-.069-.024-.137-.044-.206-.073-.03-.01-.063-.025-.093-.034l-.22-.089c-.02-.01-.04-.014-.059-.024-.093-.04-.18-.083-.269-.127a1.788 1.788 0 0 1-.137-.069.584.584 0 0 0-.078-.039c-.059-.03-.113-.064-.172-.098-.014-.01-.029-.015-.039-.024-.068-.04-.137-.083-.205-.128-.02-.014-.044-.029-.064-.044l-.132-.088c-.098-.063-.186-.137-.279-.205-.02-.02-.044-.035-.064-.05-.974-.768-1.747-1.82-2.114-3.014-.387-1.238-.303-2.623.367-3.749"></path><path d="M13.455 5.495c-.592.871-.651 1.948-.24 2.912.43 1.023 1.317 1.82 2.354 2.198.044.014.083.029.127.044a2.062 2.062 0 0 0 .245.073c2.858.553 3.631-1.468 3.842-1.767-.68.98-1.82 1.214-3.22.871-.113-.024-.23-.068-.338-.102a3.995 3.995 0 0 1-1.106-.597c-1.253-.95-2.031-2.766-1.214-4.244"></path></g></g></g></svg>