<svg xmlns="http://www.w3.org/2000/svg" width="25" height="25"><rect width="100%" height="100%" fill="none"/><g class="currentLayer"><g><path d="M23.514 8.42c0 12.463-10.942 16.232-10.942 16.232S1.629 20.882 1.629 8.42c0-1.52.122-2.796.243-3.83.183-1.52 1.216-2.735 2.675-3.1C6.432.943 9.41.335 12.572.335s6.14.608 8.085 1.155c1.459.365 2.492 1.642 2.675 3.1.06 1.034.182 2.371.182 3.83z" fill="#5d4037"/><path d="M12.572 2.159c2.978 0 5.775.608 7.599 1.094.73.183 1.215.79 1.337 1.58.122 1.156.182 2.372.182 3.587 0 9.484-6.99 13.314-9.118 14.226-2.128-.973-9.12-4.803-9.12-14.226 0-1.215.062-2.431.183-3.586.061-.79.608-1.398 1.338-1.58 1.823-.487 4.62-1.095 7.599-1.095m0-1.824c-3.162 0-6.14.608-8.086 1.155-1.398.365-2.492 1.642-2.614 3.1a32.91 32.91 0 0 0-.243 3.83c0 12.463 10.943 16.232 10.943 16.232s10.942-3.77 10.942-16.232c0-1.52-.121-2.796-.243-3.83-.182-1.52-1.216-2.735-2.675-3.1C18.712.943 15.733.335 12.572.335z" fill="#4caf50"/><path fill="#dcedc8" d="M11.964 14.925h1.216v4.863h-1.216z"/><path d="M12.572 3.983s-3.648 3.04-3.648 7.903c0 3.16 2.006 5.167 3.04 6.079l.608-1.824.608 1.824c1.033-.912 3.04-2.918 3.04-6.08 0-4.863-3.648-7.902-3.648-7.902z" fill="#4caf50"/><path d="M12.572 3.983s-3.648 3.04-3.648 7.903c0 3.16 2.006 5.167 3.04 6.079l.608-1.824V3.983z" fill="#81c784"/></g></g></svg>