<svg xmlns="http://www.w3.org/2000/svg" width="25" height="25"><rect width="100%" height="100%" fill="none"></rect><g class="currentLayer"><path fill="#6da75d" d="M120.737 192.293h115.281v66.557H120.737z"></path><g><path d="M24.947 12.475c0 6.859-5.56 12.419-12.42 12.419C6.2 24.894.977 20.16.207 14.04A12.49 12.49 0 0 1 .43 9.648C1.711 4.151 6.641.055 12.527.055c5.872 0 10.793 4.076 12.087 9.553a12.348 12.348 0 0 1 .333 2.867z" fill="#f2f2f2"></path><path fill="#3b8739" d="M11.906 13.472v-3.229L9.11 8.629l-2.796 1.614v3.229l2.796 1.614z"></path><path d="M22.919 12.982l1.822 1.052-1.822 1.053-2.796-1.615v-3.229l2.796-1.614 1.695.979c.17.716.276 1.456.315 2.214l-1.036.598v-1.125l-.974-.562-.974.562v1.125l.974.562z" fill="#333"></path><path fill="#66a060" d="M23.462 12.17v-.626l-.543-.313-.543.313v.627l.543.313z"></path><path d="M4.993 10.243v4.258l-1.865-1.064v-2.182l-.931-.538-.931.537v2.183l-1.06.604a12.49 12.49 0 0 1 .225-4.393l1.766-1.02 2.796 1.615z" fill="#333"></path><path fill="#55a344" d="M6.314 13.472l.96-1.566-.96-1.663z"></path><path fill="#639d57" d="M10.974 11.857l.932-1.614L9.11 8.629z"></path><path d="M16.92 4.886V9.17l-.937-.541-2.797 1.614v3.23l2.797 1.614 2.796-1.615v-7.59l-1.859-.996zm-.005 7.51l-.932.538-.932-.538v-1.077l.932-.538.932.538v1.077z" fill="#333"></path><g fill="#66a060"><path d="M13.796 17.458s-.055-.472-.56-.472-.85.065-.85.345.982.28 1.355.39c.373.11.703.395.538.9-.165.505-.67.56-1.449.56s-.955-.648-.955-.9h.44s-.056.395.46.46c.516.067 1.01.104 1.076-.296.088-.526-1.669-.263-1.822-.779-.13-.436-.055-1.01.823-1.097.878-.088 1.361.3 1.361.878l-.417.01z"></path><path d="M9.555 19.515l.97.56a.732.732 0 0 0 1.098-.633V16.653h-.396v2.68a.4.4 0 0 1-.6.345l-.677-.391v-2.86l2.477-1.429 2.476 1.43v2.859l-2.476 1.43-.714-.412-.466.187 1.18.681 2.871-1.658V16.2l-2.871-1.658L9.555 16.2v3.316z"></path></g></g></g></svg>