<svg xmlns="http://www.w3.org/2000/svg" version="1" width="25" height="25"><rect width="100%" height="100%" fill="none"/><g class="currentLayer"><g fill="#eb3c00"><g><path d="M10.413.31C3.737 1.526-.75 7.885.412 14.509c.91 5.211 4.868 9.17 10.08 10.08 6.663 1.174 13.023-3.338 14.197-10.08C25.731 8.597 22.235 2.752 16.495.773 14.688.139 12.313-.032 10.413.31zM8.5 7.648c.224.092.29.184.224.356a6.12 6.12 0 0 0-.158.594c-.053.277-.132.343-.29.277-.12-.053-.568-.119-1.003-.145-.673-.053-.832-.027-1.03.198-.422.475-.184.791 1.017 1.345 1.134.515 1.583.937 1.728 1.597.211.963-.41 2.058-1.359 2.375-.633.21-2.058.21-2.692 0-.54-.185-.593-.356-.356-1.03l.132-.408.607.184c1.2.357 2.15.132 2.15-.527 0-.396-.276-.62-1.292-1.07-1.755-.778-2.23-2.203-1.082-3.298.686-.646 2.295-.87 3.404-.448zm6.188.132c1.121.54 1.689 1.754 1.596 3.417-.066 1.135-.461 1.992-1.121 2.48l-.356.264.514.145c.29.08.633.146.765.146.278 0 .278.118.014.778l-.211.528-1.267-.462c-.713-.264-1.61-.541-2.006-.633-.976-.225-1.477-.502-2.018-1.135-1.188-1.385-.95-4.037.461-5.185.95-.766 2.441-.91 3.629-.343zm4.13 2.493v2.771h2.77v1.32H17.366V7.502h1.452v2.77zm-6.07 5.925c0 .197-.092.25-.409.224-.58-.027-.62.25-.092.528.712.356.831.778.37 1.24-.278.277-.977.356-1.307.145-.303-.198-.026-.409.528-.409.594 0 .646-.224.105-.488-1.042-.528-.857-1.491.304-1.491.409 0 .501.053.501.25zm1.953.58c.08.08.172.317.224.528.093.356.08.356-.514.356-.33 0-.607.053-.607.132 0 .145.514.303.805.238.105-.027.184.052.184.158 0 .316-.884.33-1.253.026-.383-.303-.41-.963-.066-1.346.277-.303 1.016-.356 1.227-.092zm1.082-.013c0 .119.04.119.158 0 .238-.238.502-.185.502.092 0 .132-.12.277-.264.317-.211.053-.264.185-.264.673 0 .554-.026.607-.33.607-.317 0-.33-.027-.33-.924 0-.831.027-.923.264-.923.145 0 .264.066.264.158zm1.583.462l.172.633.145-.594c.119-.448.224-.607.449-.633.356-.053.356 0-.014.963-.25.647-.356.792-.607.792-.25 0-.356-.145-.62-.858-.171-.475-.316-.87-.316-.897 0-.013.145-.026.316-.026.264 0 .343.105.475.62zm2.692-.41c.119.106.211.344.211.528 0 .29-.053.317-.607.317-.54 0-.594.026-.435.211.105.132.303.185.54.159.29-.053.37-.014.344.145-.027.132-.211.224-.528.25-.87.08-1.333-.805-.818-1.53.237-.343.976-.396 1.293-.08zm1.003-.052c0 .119.04.119.158 0 .237-.238.501-.185.501.092 0 .132-.118.277-.264.317-.21.053-.263.185-.263.673 0 .514-.04.607-.264.607-.238 0-.264-.093-.264-.924 0-.739.04-.923.198-.923.105 0 .198.066.198.158z"/><path d="M12.234 8.9c-.713.502-1.043 2.256-.62 3.272.527 1.267 2.124 1.36 2.757.159.343-.686.383-2.059.053-2.679-.475-.897-1.478-1.24-2.19-.752z"/></g><path d="M13.804 17.133c0 .066.158.132.343.132.185 0 .303-.053.25-.132-.039-.079-.197-.132-.342-.132-.132 0-.251.053-.251.132zM19.147 17.133c-.052.08.066.132.264.132s.317-.053.264-.132c-.04-.079-.158-.132-.264-.132-.105 0-.224.053-.264.132z"/></g></g></svg>