<svg xmlns="http://www.w3.org/2000/svg" width="25" height="25"><rect width="100%" height="100%" fill="none"/><g class="currentLayer"><g><path d="M12.52.104C5.675.104.105 5.674.105 12.521s5.57 12.417 12.417 12.417 12.417-5.57 12.417-12.417S19.368.104 12.52.104z" fill="#93c7ef"/><path d="M12.52.104C5.675.104.105 5.674.105 12.521s5.57 12.417 12.417 12.417 12.417-5.57 12.417-12.417S19.368.104 12.52.104z" fill="#93c7ef"/><path d="M12.52 24.938c6.847 0 12.418-5.57 12.418-12.417S19.368.104 12.52.104" fill="#78b9eb"/><g fill="#fff"><path d="M10.623 13.287a.886.886 0 0 1-.18.299 1.02 1.02 0 0 1-.26.2c-.097.053-.199.09-.303.113-.305.065-.592.035-.822-.082a1.175 1.175 0 0 1-.386-.31 1.402 1.402 0 0 1-.241-.454 1.749 1.749 0 0 1-.084-.54c0-.167.024-.338.072-.507.048-.168.122-.32.22-.453a1.12 1.12 0 0 1 .373-.321c.222-.12.52-.155.858-.093.106.02.21.056.31.105a.935.935 0 0 1 .467.519l.028.073 1.28-.91-.025-.048a2.25 2.25 0 0 0-.91-.91c-.403-.227-.886-.342-1.434-.342-.459 0-.872.084-1.23.25a2.945 2.945 0 0 0-.917.65 2.83 2.83 0 0 0-.563 3.016c.138.353.337.672.59.949.253.277.559.503.908.671.35.169.742.254 1.164.254a3.303 3.303 0 0 0 1.457-.345c.222-.112.423-.254.597-.42.176-.167.309-.36.396-.572l.02-.048-1.36-.812-.025.068zM18.375 12.243v-1.145h-.983l.362-1.44H16.44l-.354 1.44h-.753l.362-1.44H14.38l-.355 1.44h-1.17v1.145h.89l-.13.564h-1.162v1.223h.865l-.33 1.339h1.314l.322-1.339h.754l-.331 1.339h1.314l.323-1.339h1.288v-1.223h-.992l.13-.564h1.264zm-2.57 0l-.13.564h-.753l.13-.564h.753z"/></g><g><path d="M10.623 13.287a.886.886 0 0 1-.18.299 1.02 1.02 0 0 1-.26.2c-.097.053-.199.09-.303.113-.305.065-.592.035-.822-.082a1.175 1.175 0 0 1-.386-.31 1.402 1.402 0 0 1-.241-.454 1.749 1.749 0 0 1-.084-.54c0-.167.024-.338.072-.507.048-.168.122-.32.22-.453a1.12 1.12 0 0 1 .373-.321c.222-.12.52-.155.858-.093.106.02.21.056.31.105a.935.935 0 0 1 .467.519l.028.073 1.28-.91-.025-.048a2.25 2.25 0 0 0-.91-.91c-.403-.227-.886-.342-1.434-.342-.459 0-.872.084-1.23.25a2.945 2.945 0 0 0-.917.65 2.83 2.83 0 0 0-.563 3.016c.138.353.337.672.59.949.253.277.559.503.908.671.35.169.742.254 1.164.254a3.303 3.303 0 0 0 1.457-.345c.222-.112.423-.254.597-.42.176-.167.309-.36.396-.572l.02-.048-1.36-.812-.025.068zM18.375 12.243v-1.145h-.983l.362-1.44H16.44l-.354 1.44h-.753l.362-1.44H14.38l-.355 1.44h-1.17v1.145h.89l-.13.564h-1.162v1.223h.865l-.33 1.339h1.314l.322-1.339h.754l-.331 1.339h1.314l.323-1.339h1.288v-1.223h-.992l.13-.564h1.264zm-2.57 0l-.13.564h-.753l.13-.564h.753z" fill="#fff"/></g></g></g></svg>