<svg xmlns="http://www.w3.org/2000/svg" width="50" height="50"><rect width="100%" height="100%" fill="none"/><g class="currentLayer"><circle cx="24.989" cy="24.835" fill="#0769AD" r="24.835"/><g fill="#FFF"><path d="M8.754 16.433c-3.181 4.575-2.788 10.533-.36 15.4.057.112.124.225.18.349.034.078.079.146.113.224.022.045.045.079.067.124.045.079.079.146.124.225.078.135.157.27.236.393.045.079.09.146.135.214.09.135.18.28.27.427.033.056.078.124.112.18.124.19.258.37.393.562l.012.011c.022.034.045.056.067.09.112.157.236.315.36.472l.135.169c.112.135.213.27.326.404.045.045.078.102.123.147.146.18.304.348.461.528l.011.011.023.023c.146.168.303.326.46.494.046.056.102.101.147.146l.37.371c.057.045.102.101.158.146.169.158.337.315.506.461h.011c.034.023.056.056.09.079l.461.393.191.158c.124.1.259.202.382.303.068.056.135.101.203.158.146.1.28.213.427.314.056.045.101.08.157.113.011.011.034.022.045.033a5.6 5.6 0 0 0 .427.282c.057.044.124.078.18.123.214.135.439.27.663.405.057.034.124.067.18.101.169.09.326.18.495.281l.27.135c.123.056.236.124.348.18.023.011.056.022.079.045.045.022.101.045.146.067.18.09.37.18.562.259.045.022.079.033.124.056.213.101.438.191.652.27.056.022.1.045.157.067.202.079.405.158.618.225.023.011.056.011.079.022.225.08.46.158.686.225.056.012.112.034.168.045.236.079.461.158.708.203 15.4 2.81 19.874-9.252 19.874-9.252-3.754 4.89-10.42 6.183-16.749 4.744a8.368 8.368 0 0 1-.708-.202c-.056-.012-.112-.034-.18-.057a15.8 15.8 0 0 1-.764-.258c-.202-.079-.405-.146-.596-.225l-.168-.067c-.214-.09-.439-.18-.652-.27-.045-.023-.09-.034-.124-.056-.18-.079-.36-.169-.55-.259a1.028 1.028 0 0 1-.158-.079c-.135-.067-.281-.146-.427-.213-.09-.045-.192-.101-.281-.146-.17-.09-.338-.18-.506-.281-.056-.034-.113-.056-.169-.09-.225-.135-.438-.27-.663-.405-.056-.034-.124-.079-.18-.112-.157-.101-.315-.203-.472-.315-.056-.034-.101-.079-.146-.101a11.03 11.03 0 0 1-.439-.326c-.067-.045-.134-.101-.19-.146-.136-.101-.27-.203-.405-.315l-.18-.146c-.169-.135-.337-.281-.495-.416-.022-.011-.034-.034-.056-.045-.18-.157-.348-.315-.528-.472-.057-.045-.101-.09-.146-.135-.124-.124-.259-.247-.371-.371l-.147-.146a9.592 9.592 0 0 1-.46-.495l-.023-.022c-.157-.18-.315-.349-.472-.529-.045-.045-.079-.1-.124-.146-.112-.135-.224-.28-.337-.416-.045-.045-.079-.1-.124-.157-.134-.169-.258-.348-.393-.517-3.507-4.789-4.766-11.387-1.967-16.805"/><path d="M18.646 12.566c-2.304 3.316-2.18 7.756-.382 11.252.303.585.64 1.158 1.023 1.698.348.494.73 1.079 1.18 1.483.169.18.337.36.517.54l.135.135c.169.169.349.326.528.495.012.01.012.01.023.022.202.18.405.348.618.506.045.034.09.079.135.112l.64.472c.012 0 .012.012.023.012.101.067.191.123.292.19.045.034.09.068.135.09.158.102.315.203.472.293a.235.235 0 0 1 .068.045c.135.079.28.157.427.236.045.022.101.056.146.079.101.056.191.1.292.157.012.011.034.011.045.022.203.102.405.192.619.293.045.022.09.033.135.056l.505.202c.068.023.147.056.214.079.157.056.315.112.46.157.068.023.136.045.214.068.225.067.439.157.675.19 11.915 1.968 14.658-7.182 14.658-7.182-2.473 3.563-7.262 5.26-12.376 3.934-.225-.056-.45-.123-.675-.19l-.202-.068c-.157-.056-.315-.101-.472-.169-.068-.022-.146-.056-.214-.079l-.506-.202c-.045-.022-.09-.034-.134-.056-.214-.09-.416-.191-.619-.292a4.107 4.107 0 0 1-.314-.158 1.342 1.342 0 0 0-.18-.09c-.135-.067-.259-.146-.394-.224-.033-.023-.067-.034-.09-.057-.157-.09-.314-.19-.472-.292-.045-.034-.1-.067-.146-.101l-.303-.202c-.225-.147-.428-.315-.641-.473-.045-.045-.101-.078-.146-.112-2.237-1.765-4.013-4.182-4.856-6.924-.888-2.844-.697-6.025.843-8.61"/><path d="M26.953 9.689c-1.36 2-1.495 4.473-.55 6.688.988 2.35 3.023 4.182 5.406 5.047l.292.101c.045.011.09.023.135.045.135.045.281.09.427.124 6.565 1.27 8.341-3.372 8.824-4.058-1.562 2.248-4.181 2.788-7.396 2-.259-.055-.528-.157-.776-.235a8.354 8.354 0 0 1-.921-.382 9.175 9.175 0 0 1-1.62-.99c-2.877-2.18-4.664-6.35-2.787-9.745"/></g></g></svg>