<svg xmlns="http://www.w3.org/2000/svg" xmlns:xlink="http://www.w3.org/1999/xlink" version="1.1" style="" xml:space="preserve" width="50" height="50"><rect id="backgroundrect" width="100%" height="100%" x="0" y="0" fill="none" stroke="none" class="" style=""/>

























<g class="currentLayer" style=""><title>Layer 1</title><g class=""><path style="fill:#F2F2F2;" d="M49.57083346344724,24.94757889772882 c0,13.599057995118962 -11.024196570432224,24.623254565551182 -24.623254565551182,24.623254565551182 C12.400780297101818,49.570833463279996 2.0459322755823717,40.18687267451319 0.5192904925181996,28.054148725690435 C0.39069169816608185,27.036996706039247 0.3243243323448701,25.99983829205355 0.3243243323448701,24.94757889772882 c0,-1.9276353310477006 0.22112836814922826,-3.804004276613217 0.6402046187043321,-5.604098843778414 C3.5012050942417052,8.444996740225903 13.276156233824793,0.32432433217763945 24.94757889789605,0.32432433217763945 c11.642278733862813,0 21.39808914040471,8.080467250202949 23.962947367924194,18.938841590670286 c0.3366460585133952,1.4200692593976476 0.548733075376834,2.8874613361634633 0.6261616688349149,4.389960787602817 C49.55977223581037,24.082206158173097 49.57083346344724,24.51340166683469 49.57083346344724,24.94757889772882 z" id="svg_1" class=""/><polygon style="fill:#3B8739;" points="23.7159366607666,26.92503970116377 23.7159366607666,20.52309077233076 18.171661376953125,17.322161130607128 12.62748908996582,20.52309077233076 12.62748908996582,26.92503970116377 18.171661376953125,30.12596743553877 " id="svg_2" class=""/><path style="fill:#333333;" d="M45.550702417268425,25.95357350515499 l3.613077869142049,2.086436086077876 l-3.613077869142049,2.086436086077876 l-5.5437911070104455,-3.201023093521654 v-6.402046187043308 l5.5437911070104455,-3.201023093521654 l3.3598238485518297,1.9407164350356492 c0.3366460585133952,1.4200692593976476 0.548733075376834,2.8874613361634633 0.6261616688349149,4.389960787602817 l-2.0543104336368834,1.1859559718486172 v-2.230135860769023 l-1.9316750837498642,-1.1145870074437783 l-1.9316750837498642,1.1145870074437783 v2.230135860769023 L45.550702417268425,25.95357350515499 z" id="svg_3" class=""/><polygon style="fill:#66A060;" points="46.62681579589844,24.3454632088542 46.62681579589844,23.102762632071972 45.55060577392578,22.481405667960644 44.474300384521484,23.102762632071972 44.474300384521484,24.3454632088542 45.55060577392578,24.966913633048534 " id="svg_4" class=""/><path style="fill:#333333;" d="M10.008765774481928,20.52347258133393 v8.442217486222628 l-3.697527937534839,-2.1095203872330797 v-4.327633174483767 L4.465070852059628,21.462137977057424 l-1.8462631694756042,1.0663023441941422 v4.327633174483767 L0.5192904925181996,28.054148725690435 C0.39069169816608185,27.036996706039247 0.3243243323448701,25.99983829205355 0.3243243323448701,24.94757889772882 c0,-1.9276353310477006 0.22112836814922826,-3.804004276613217 0.6402046187043321,-5.604098843778414 l3.5005419010104286,-2.0211267507262773 L10.008765774481928,20.52347258133393 z" id="svg_5" class=""/><rect x="132.66943493211573" y="208.59543520421528" transform="matrix(0.04809229407334215,0.0832958533350286,-0.0832958533350286,0.04809229407334215,29.1659902793178,-3.7608130915728193) " style="fill:#6DA75D;" width="115.28099822998047" height="66.55699920654297" id="svg_6" class=""/><polygon style="fill:#55A344;" points="12.62748908996582,26.92503970116377 14.531173706054688,23.820583753287792 12.62748908996582,20.52309077233076 " id="svg_7" class=""/><polygon style="fill:#639D57;" points="21.86765480041504,23.723823957145214 23.7159366607666,20.52309077233076 18.171661376953125,17.322161130607128 " id="svg_8" class=""/><path style="fill:#333333;" d="M33.65718953916647,9.902289435236316 v8.493483871704811 l-1.858286242993941,-1.073420003716997 l-5.54475295289191,3.201023093521654 v6.402046187043308 l5.54475295289191,3.201023093521654 l5.5437911070104455,-3.201023093521654 V11.875131522712957 L33.65718953916647,9.902289435236316 zM33.64709015741106,24.790798019049728 l-1.848283045826686,1.0673603746637557 l-1.848283045826686,-1.0673603746637557 v-2.133662718857898 l1.848283045826686,-1.0673603746637557 l1.848283045826686,1.0673603746637557 V24.790798019049728 z" id="svg_9" class=""/><g id="svg_10" class="">
	<path style="fill:#66A060;" d="M27.462709693343697,34.8273712383918 c0,0 -0.10888095378204715,-0.9357798580790943 -1.1098739626245901,-0.9357798580790943 c-1.0010891934306885,0 -1.6865005685639627,0.1305224861150507 -1.6865005685639627,0.6855075597214204 s1.947737909970357,0.5549850736063688 2.6876859465828007,0.7725546119941684 c0.7399480366124452,0.21756953838780096 1.3927528363639885,0.7834234704547456 1.0663023441941422,1.7845126638854332 c-0.3264504921698492,1.0010891934306885 -1.3275396856005366,1.1098739626245901 -2.872648909588875,1.1098739626245901 s-1.8933936176674835,-1.2840642517582355 -1.8933936176674835,-1.7845126638854332 h0.8704705227274931 c0,0 -0.10888095378204715,0.7834234704547456 0.9139459565697978,0.9139459565697978 c1.022826910351841,0.1305224861150507 2.000831802627327,0.20400751145911827 2.1327008729764305,-0.5874954643999486 c0.1740941045454993,-1.0446608118611385 -3.30788417095262,-0.522282313636494 -3.6125969462013154,-1.545109223988337 c-0.2573899578805268,-0.8642185244979572 -0.10888095378204715,-2.002082202273234 1.6321562762610866,-2.176272491406879 c1.7410372300431338,-0.1741902891336457 2.698554805043375,0.5945169393346544 2.698554805043375,1.7410372300431338 L27.462709693343697,34.8273712383918 z" id="svg_11"/>
	<path style="fill:#66A060;" d="M19.05367589003168,38.90694436004526 l1.9244612396388594,1.1110281776823503 c0.9669436646386189,0.5582553496033557 2.1755991992898527,-0.1395638374008393 2.1755991992898527,-1.2560745366075503 v-1.946968433265185 v-3.5831644622284307 h-0.7843853163362106 v5.311986249576934 c0,0.6097141042618319 -0.6600186438625506,0.990893627087144 -1.1881682173759913,0.6858922980740088 l-1.3432177734684467,-0.7754401496385684 v-5.669119625365572 l4.909549932771206,-2.834271258918347 l4.909549932771206,2.834271258918347 v5.669119625365572 l-4.909549932771206,2.834271258918347 l-1.414298184108846,-0.8165109687771994 l-0.9235644153844628,0.3724267253039633 l2.337766414905162,1.3497583254624212 l5.693935249107418,-3.2874930382655227 v-6.574312784414019 L24.74751495455095,29.04504235277758 l-5.693935249107418,3.2874930382655227 v6.5744089690021665 H19.05367589003168 z" id="svg_12"/>
</g><g id="svg_13" class="">
</g><g id="svg_14" class="">
</g><g id="svg_15" class="">
</g><g id="svg_16" class="">
</g><g id="svg_17" class="">
</g><g id="svg_18" class="">
</g><g id="svg_19" class="">
</g><g id="svg_20" class="">
</g><g id="svg_21" class="">
</g><g id="svg_22" class="">
</g><g id="svg_23" class="">
</g><g id="svg_24" class="">
</g><g id="svg_25" class="">
</g><g id="svg_26" class="">
</g><g id="svg_27" class="">
</g></g></g></svg>