<svg xmlns="http://www.w3.org/2000/svg" width="50" height="50"><rect id="backgroundrect" width="100%" height="100%" fill="none"/><style>.st1{fill:#00dbfc}</style><g class="currentLayer"><g id="svg_1"><g id="svg_2"><g id="svg_3"><g id="svg_4"><circle cx="24.835" cy="25.11" r="24.67" id="svg_5" fill="#292929"/></g></g></g></g><g id="svg_6"><circle class="st1" cx="25.123" cy="24.978" r="3.07" id="svg_7"/><path class="st1" d="M40.528 21.964c-1.06-.893-2.567-1.675-4.353-2.289-.335-.111-.726-.223-1.117-.334.056-.28.112-.503.168-.782.837-4.13.223-7.367-1.563-8.428-.893-.502-2.121-.502-3.516 0-1.284.503-2.735 1.396-4.13 2.624-.28.223-.559.502-.838.78-.167-.167-.39-.334-.558-.501-3.125-2.791-6.251-3.907-8.093-2.847-.893.502-1.507 1.563-1.786 3.07-.223 1.34-.167 3.07.223 4.911.056.391.168.726.28 1.117-.447.111-.894.279-1.284.39-3.74 1.284-5.972 3.293-5.972 5.303 0 1.06.614 2.176 1.786 3.125 1.116.95 2.679 1.786 4.465 2.4.279.112.614.223.949.28-.112.39-.168.837-.28 1.227-.725 3.851-.111 6.81 1.62 7.814.446.28 1.004.39 1.618.39.614 0 1.283-.11 2.009-.39 1.395-.502 2.847-1.395 4.298-2.679.223-.223.502-.446.725-.67.335.28.614.558.95.838 2.176 1.897 4.297 2.902 5.971 2.902.614 0 1.172-.112 1.619-.39.893-.559 1.563-1.62 1.842-3.126.279-1.452.223-3.182-.168-5.08-.056-.279-.111-.613-.223-.893.223-.055.446-.111.614-.223 4.018-1.34 6.474-3.46 6.474-5.581 0-.949-.614-2.01-1.73-2.958zm-9.879-10.437c1.005-.335 1.786-.391 2.288-.112 1.005.558 1.675 2.958.893 6.865l-.167.67c-1.451-.335-2.958-.558-4.577-.726-.949-1.34-1.897-2.567-2.902-3.628.279-.279.502-.502.781-.725 1.284-1.116 2.568-1.898 3.684-2.344zm-.726 16.297c-.558.949-1.06 1.842-1.618 2.623a56.441 56.441 0 0 1-3.126.112c-1.06 0-2.12-.056-3.125-.112-.558-.837-1.172-1.73-1.675-2.679-.558-.893-1.004-1.841-1.45-2.79.446-.95.948-1.842 1.45-2.735l1.675-2.68a56.441 56.441 0 0 1 3.125-.11c1.06 0 2.121.055 3.126.11.558.838 1.116 1.731 1.674 2.624.558.949 1.06 1.842 1.507 2.735-.558 1.005-1.004 1.953-1.563 2.902zm2.233-1.116c.446 1.06.837 2.065 1.172 3.014-1.005.223-2.065.39-3.181.558.335-.558.725-1.172 1.06-1.73.335-.614.67-1.228.949-1.842zm-6.977 7.758a31.838 31.838 0 0 1-2.065-2.456c.67 0 1.34.056 2.01.056.725 0 1.395 0 2.065-.056-.67.893-1.34 1.73-2.01 2.456zm-5.023-4.186a27.095 27.095 0 0 1-3.181-.502c.279-1.005.67-2.01 1.116-3.014.335.614.614 1.172.949 1.786.39.614.725 1.172 1.116 1.73zm-1.06-8.763c-.335.614-.67 1.172-.95 1.786-.446-1.004-.78-2.009-1.116-2.958 1.005-.223 2.01-.39 3.126-.558-.39.558-.726 1.172-1.06 1.73zm6.027-5.86c.67.725 1.34 1.563 2.01 2.456-.67-.056-1.34-.056-2.065-.056-.67 0-1.34 0-2.01.056.726-.893 1.396-1.73 2.065-2.456zm6.028 5.86a17.899 17.899 0 0 0-1.06-1.73c1.116.112 2.12.335 3.125.558-.279.949-.67 1.954-1.116 2.958-.223-.558-.558-1.172-.949-1.786zm-14.79-3.628c-.335-1.674-.391-3.181-.168-4.353.168-1.005.558-1.73 1.06-2.065 1.005-.558 3.405 0 6.363 2.679l.503.502c-1.005 1.06-1.954 2.289-2.903 3.628-1.618.167-3.18.39-4.576.726-.112-.447-.168-.782-.28-1.117zm-1.619 11.275c-3.628-1.228-5.302-3.014-5.302-4.186 0-1.117 1.563-2.735 4.967-3.907.39-.112.782-.28 1.172-.391a43.084 43.084 0 0 0 1.675 4.354c-.67 1.506-1.284 2.958-1.675 4.409-.279-.112-.558-.168-.837-.28zm3.405 9.655c-.391 0-.67-.055-.893-.223-.95-.558-1.619-2.679-.893-6.25.056-.392.167-.726.223-1.117 1.395.335 2.958.558 4.632.67a33.272 33.272 0 0 0 2.959 3.627c-.224.224-.447.391-.67.614-2.177 1.898-4.13 2.68-5.358 2.68zm15.795-6.865c.726 3.74 0 6.084-.949 6.642-.949.558-3.125.056-5.86-2.344-.28-.223-.558-.502-.837-.781a41.253 41.253 0 0 0 2.902-3.628c1.674-.168 3.237-.39 4.632-.726 0 .28.056.558.112.837zm1.395-2.79c-.167.056-.39.111-.558.167-.446-1.34-1.004-2.846-1.73-4.353a37.784 37.784 0 0 0 1.674-4.298l1.005.335c1.619.558 2.958 1.284 3.851 2.01.782.669 1.228 1.339 1.228 1.953 0 1.172-1.73 2.958-5.47 4.186z" id="svg_8"/></g></g></svg>