<svg xmlns="http://www.w3.org/2000/svg" xmlns:xlink="http://www.w3.org/1999/xlink" style="" version="1.1" xml:space="preserve" width="128" height="128"><rect id="backgroundrect" width="100%" height="100%" x="0" y="0" fill="none" stroke="none"/><style type="text/css">
	.st0{fill:#292929;}
	.st1{fill:#00DBFC;}
</style><g class="currentLayer" style=""><title>Layer 1</title><g id="svg_1" class=""><g id="svg_2"><g id="svg_3"><g id="svg_4"><circle class="st0" cx="64.15340038574499" cy="63.7004420701341" r="63.260868072509766" id="svg_5"/></g></g></g></g><g id="svg_6" class=""><circle class="st1" cx="64.66889834303467" cy="62.37871030094779" r="8.265189170837402" id="svg_7"/><path class="st1" d="M106.14512217260737,54.26379762918408 c-2.8552472371200794,-2.4044187259958565 -6.9127038372380865,-4.5082851112422295 -11.7215412892298,-6.1613229853643805 c-0.901657022248448,-0.30055234074948417 -1.9535902148716333,-0.6011046814989641 -3.0055234074948216,-0.901657022248448 c0.1502761703747412,-0.7513808518737106 0.30055234074948417,-1.352485533372669 0.4508285111242279,-2.103866385246374 c2.2541425556211148,-11.120436607730836 0.6011046814989641,-19.83645448946581 -4.207732770492748,-22.691701726585894 c-2.4044187259958565,-1.352485533372669 -5.710494474240158,-1.352485533372669 -9.467398733608684,0 c-3.4563519186190432,1.352485533372669 -7.363532348362311,3.7569042593685253 -11.120436607730836,7.062980007612828 c-0.7513808518737106,0.6011046814989641 -1.5027617037474101,1.352485533372669 -2.2541425556211148,2.103866385246374 c-0.4508285111242279,-0.4508285111242279 -1.0519331926231887,-0.901657022248448 -1.5027617037474101,-1.352485533372669 c-8.415465540985496,-7.513808518737051 -16.83093108197099,-10.519331926231871 -21.790044704337447,-7.664084689111791 c-2.4044187259958565,1.352485533372669 -4.057456600118008,4.207732770492748 -4.808837451991713,8.265189370610756 c-0.6011046814989641,3.606628088993784 -0.4508285111242279,8.265189370610756 0.6011046814989641,13.224302992977211 c0.1502761703747412,1.0519331926231887 0.4508285111242279,1.9535902148716333 0.7513808518737106,3.0055234074948216 c-1.2022093629979282,0.30055234074948417 -2.4044187259958565,0.7513808518737106 -3.4563519186190432,1.0519331926231887 c-10.068503415107648,3.4563519186190432 -16.079550230097286,8.86629405210972 -16.079550230097286,14.276236185600396 c0,2.8552472371200794 1.6530378741221528,5.8607706446149015 4.808837451991713,8.415465540985496 c3.0055234074948216,2.554694896370598 7.213256177987568,4.808837451991713 12.022093629979281,6.461875326113863 c0.7513808518737106,0.30055234074948417 1.6530378741221528,0.6011046814989641 2.554694896370598,0.7513808518737106 c-0.30055234074948417,1.0519331926231887 -0.4508285111242279,2.2541425556211148 -0.7513808518737106,3.306075748244303 c-1.9535902148716333,10.369055755857131 -0.30055234074948417,18.3336927857184 4.3580089408674905,21.038663852463742 c1.2022093629979282,0.7513808518737106 2.704971066745338,1.0519331926231887 4.3580089408674905,1.0519331926231887 c1.6530378741221528,0 3.4563519186190432,-0.30055234074948417 5.409942133490676,-1.0519331926231887 c3.7569042593685253,-1.352485533372669 7.664084689111791,-3.7569042593685253 11.571265118855058,-7.213256177987568 c0.6011046814989641,-0.6011046814989641 1.352485533372669,-1.2022093629979282 1.9535902148716333,-1.803314044496892 c0.901657022248448,0.7513808518737106 1.6530378741221528,1.5027617037474101 2.554694896370598,2.2541425556211148 c5.8607706446149015,5.109389792741195 11.571265118855058,7.814360859486533 16.079550230097286,7.814360859486533 c1.6530378741221528,0 3.1557995778695616,-0.30055234074948417 4.3580089408674905,-1.0519331926231887 c2.4044187259958565,-1.5027617037474101 4.207732770492748,-4.3580089408674905 4.959113622366453,-8.415465540985496 c0.7513808518737106,-3.9071804297432653 0.6011046814989641,-8.565741711360237 -0.4508285111242279,-13.675131504101431 c-0.1502761703747412,-0.7513808518737106 -0.30055234074948417,-1.6530378741221528 -0.6011046814989641,-2.4044187259958565 c0.6011046814989641,-0.1502761703747412 1.2022093629979282,-0.30055234074948417 1.6530378741221528,-0.6011046814989641 c10.819884266981353,-3.606628088993784 17.432035763469962,-9.317122563233943 17.432035763469962,-15.027617037474101 C110.80368345422437,59.673739762674764 109.15064558010219,56.81849252555469 106.14512217260737,54.26379762918408 zM79.54624001627825,26.162153769107526 c2.704971066745338,-0.901657022248448 4.808837451991713,-1.0519331926231887 6.1613229853643805,-0.30055234074948417 c2.704971066745338,1.5027617037474101 4.5082851112422295,7.964637029861273 2.4044187259958565,18.483968956093147 c-0.1502761703747412,0.6011046814989641 -0.30055234074948417,1.2022093629979282 -0.4508285111242279,1.803314044496892 c-3.9071804297432653,-0.901657022248448 -7.964637029861273,-1.5027617037474101 -12.322645970728761,-1.9535902148716333 c-2.554694896370598,-3.606628088993784 -5.109389792741195,-6.9127038372380865 -7.814360859486533,-9.767951074358166 c0.7513808518737106,-0.7513808518737106 1.352485533372669,-1.352485533372669 2.103866385246374,-1.9535902148716333 C73.08436469016435,29.468229517351823 76.54071660878343,27.364363132105453 79.54624001627825,26.162153769107526 zM77.59264980140658,70.04279551853189 c-1.5027617037474101,2.554694896370598 -2.8552472371200794,4.959113622366453 -4.3580089408674905,7.062980007612828 c-2.704971066745338,0.1502761703747412 -5.560218303865418,0.30055234074948417 -8.415465540985496,0.30055234074948417 c-2.8552472371200794,0 -5.710494474240158,-0.1502761703747412 -8.415465540985496,-0.30055234074948417 c-1.5027617037474101,-2.2541425556211148 -3.1557995778695616,-4.658561281616971 -4.5082851112422295,-7.213256177987568 c-1.5027617037474101,-2.4044187259958565 -2.704971066745338,-4.959113622366453 -3.9071804297432653,-7.513808518737051 c1.2022093629979282,-2.554694896370598 2.554694896370598,-4.959113622366453 3.9071804297432653,-7.363532348362311 l0,0 c1.5027617037474101,-2.4044187259958565 3.0055234074948216,-4.808837451991713 4.5082851112422295,-7.213256177987568 c2.704971066745338,-0.1502761703747412 5.560218303865418,-0.30055234074948417 8.415465540985496,-0.30055234074948417 c2.8552472371200794,0 5.710494474240158,0.1502761703747412 8.415465540985496,0.30055234074948417 c1.5027617037474101,2.2541425556211148 3.0055234074948216,4.658561281616971 4.5082851112422295,7.062980007612828 c1.5027617037474101,2.554694896370598 2.8552472371200794,4.959113622366453 4.057456600118008,7.363532348362311 C80.29762086815195,64.93340572579068 79.09541150515399,67.48810062216128 77.59264980140658,70.04279551853189 zM83.60369661639622,67.03727211103707 c1.2022093629979282,2.8552472371200794 2.2541425556211148,5.560218303865418 3.1557995778695616,8.114913200236016 c-2.704971066745338,0.6011046814989641 -5.560218303865418,1.0519331926231887 -8.565741711360237,1.5027617037474101 c0.901657022248448,-1.5027617037474101 1.9535902148716333,-3.1557995778695616 2.8552472371200794,-4.658561281616971 C81.95065874227409,70.34334785928138 82.85231576452252,68.6903099851592 83.60369661639622,67.03727211103707 zM64.8191753195536,87.92565979312609 c-1.803314044496892,-1.9535902148716333 -3.7569042593685253,-4.207732770492748 -5.560218303865418,-6.6121514964886074 c1.803314044496892,0 3.606628088993784,0.1502761703747412 5.409942133490676,0.1502761703747412 c1.9535902148716333,0 3.7569042593685253,0 5.560218303865418,-0.1502761703747412 C68.4258034085474,83.7179270226333 66.6224893640505,85.97206957825442 64.8191753195536,87.92565979312609 zM51.29431998582693,76.65494701502051 c-3.0055234074948216,-0.30055234074948417 -5.8607706446149015,-0.7513808518737106 -8.565741711360237,-1.352485533372669 c0.7513808518737106,-2.704971066745338 1.803314044496892,-5.409942133490676 3.0055234074948216,-8.114913200236016 c0.901657022248448,1.6530378741221528 1.6530378741221528,3.1557995778695616 2.554694896370598,4.808837451991713 C49.340729770955306,73.64942360752569 50.24238679320373,75.1521853112731 51.29431998582693,76.65494701502051 zM48.43907274870685,53.061588266186156 c-0.901657022248448,1.6530378741221528 -1.803314044496892,3.1557995778695616 -2.554694896370598,4.808837451991713 c-1.2022093629979282,-2.704971066745338 -2.103866385246374,-5.409942133490676 -3.0055234074948216,-7.964637029861273 c2.704971066745338,-0.6011046814989641 5.409942133490676,-1.0519331926231887 8.415465540985496,-1.5027617037474101 C50.24238679320373,49.9057886883166 49.340729770955306,51.558826562438746 48.43907274870685,53.061588266186156 zM64.66889914917887,37.28259037683835 c1.803314044496892,1.9535902148716333 3.606628088993784,4.207732770492748 5.409942133490676,6.6121514964886074 c-1.803314044496892,-0.1502761703747412 -3.606628088993784,-0.1502761703747412 -5.560218303865418,-0.1502761703747412 c-1.803314044496892,0 -3.606628088993784,0 -5.409942133490676,0.1502761703747412 C61.06227106018508,41.4903231473311 62.86558510468198,39.23618059170998 64.66889914917887,37.28259037683835 zM80.89872554965089,53.061588266186156 c-0.901657022248448,-1.6530378741221528 -1.803314044496892,-3.1557995778695616 -2.8552472371200794,-4.658561281616971 c3.0055234074948216,0.30055234074948417 5.710494474240158,0.901657022248448 8.415465540985496,1.5027617037474101 c-0.7513808518737106,2.554694896370598 -1.803314044496892,5.2596659631159355 -3.0055234074948216,7.964637029861273 C82.85231576452252,56.367664014430446 81.95065874227409,54.71462614030831 80.89872554965089,53.061588266186156 zM41.075540400344536,43.29363719182799 c-0.901657022248448,-4.5082851112422295 -1.0519331926231887,-8.565741711360237 -0.4508285111242279,-11.7215412892298 c0.4508285111242279,-2.704971066745338 1.5027617037474101,-4.658561281616971 2.8552472371200794,-5.560218303865418 c2.704971066745338,-1.5027617037474101 9.1668463928592,0 17.131483422720475,7.213256177987568 c0.4508285111242279,0.4508285111242279 0.901657022248448,0.901657022248448 1.352485533372669,1.352485533372669 c-2.704971066745338,2.8552472371200794 -5.2596659631159355,6.1613229853643805 -7.814360859486533,9.767951074358166 c-4.3580089408674905,0.4508285111242279 -8.565741711360237,1.0519331926231887 -12.322645970728761,1.9535902148716333 C41.52636891146876,45.09695123632487 41.37609274109401,44.19529421407644 41.075540400344536,43.29363719182799 zM36.71753145947703,73.64942360752569 c-9.767951074358166,-3.306075748244303 -14.276236185600396,-8.114913200236016 -14.276236185600396,-11.270712778105576 c0,-3.0055234074948216 4.207732770492748,-7.363532348362311 13.374579163351951,-10.519331926231871 c1.0519331926231887,-0.30055234074948417 2.103866385246374,-0.7513808518737106 3.1557995778695616,-1.0519331926231887 c1.2022093629979282,3.7569042593685253 2.704971066745338,7.664084689111791 4.5082851112422295,11.7215412892298 c-1.803314044496892,4.057456600118008 -3.4563519186190432,7.964637029861273 -4.5082851112422295,11.871817459604541 C38.22029316322444,74.1002521186499 37.46891231135074,73.94997594827514 36.71753145947703,73.64942360752569 zM45.88437785233624,99.64720108235588 c-1.0519331926231887,0 -1.803314044496892,-0.1502761703747412 -2.4044187259958565,-0.6011046814989641 c-2.554694896370598,-1.5027617037474101 -4.3580089408674905,-7.213256177987568 -2.4044187259958565,-16.83093108197099 c0.1502761703747412,-1.0519331926231887 0.4508285111242279,-1.9535902148716333 0.6011046814989641,-3.0055234074948216 c3.7569042593685253,0.901657022248448 7.964637029861273,1.5027617037474101 12.472922141103506,1.803314044496892 c2.554694896370598,3.606628088993784 5.2596659631159355,6.9127038372380865 7.964637029861273,9.767951074358166 c-0.6011046814989641,0.6011046814989641 -1.2022093629979282,1.0519331926231887 -1.803314044496892,1.6530378741221528 C54.4501195636965,97.54333469710949 49.190453600580554,99.64720108235588 45.88437785233624,99.64720108235588 zM88.41253406838794,81.16323212626274 c1.9535902148716333,10.068503415107648 0,16.38010257084677 -2.554694896370598,17.88286427459418 c-2.554694896370598,1.5027617037474101 -8.415465540985496,0.1502761703747412 -15.778997889347806,-6.311599155739123 c-0.7513808518737106,-0.6011046814989641 -1.5027617037474101,-1.352485533372669 -2.2541425556211148,-2.103866385246374 c2.554694896370598,-2.8552472371200794 5.2596659631159355,-6.1613229853643805 7.814360859486533,-9.767951074358166 c4.5082851112422295,-0.4508285111242279 8.71601788173498,-1.0519331926231887 12.472922141103506,-1.9535902148716333 C88.11198172763845,79.66047042251533 88.26225789801322,80.41185127438904 88.41253406838794,81.16323212626274 zM92.16943832775647,73.64942360752569 c-0.4508285111242279,0.1502761703747412 -1.0519331926231887,0.30055234074948417 -1.5027617037474101,0.4508285111242279 c-1.2022093629979282,-3.606628088993784 -2.704971066745338,-7.664084689111791 -4.658561281616971,-11.7215412892298 c1.803314044496892,-3.9071804297432653 3.306075748244303,-7.814360859486533 4.5082851112422295,-11.571265118855058 c0.901657022248448,0.30055234074948417 1.803314044496892,0.6011046814989641 2.704971066745338,0.901657022248448 c4.3580089408674905,1.5027617037474101 7.964637029861273,3.4563519186190432 10.369055755857131,5.409942133490676 c2.103866385246374,1.803314044496892 3.306075748244303,3.606628088993784 3.306075748244303,5.2596659631159355 C106.89650302448108,65.53451040728966 102.23794174286412,70.34334785928138 92.16943832775647,73.64942360752569 z" id="svg_8"/></g></g></svg>