<svg xmlns="http://www.w3.org/2000/svg" xmlns:xlink="http://www.w3.org/1999/xlink" version="1.1" width="20" height="20" style="" xml:space="preserve"><rect id="backgroundrect" width="100%" height="100%" x="0" y="0" fill="none" stroke="none" class="" style=""/>
















<g class="currentLayer" style=""><title>Layer 1</title><g id="svg_1" class="" transform="rotate(-180 10.0478515625,10.146280288696289) ">
	<path d="M18.973401451767312,12.519336241411066 L11.143829786496555,4.677698375956746 c-0.313003983083635,-0.2971829164093705 -0.6784073389924278,-0.4457743746140569 -1.095956930659595,-0.4457743746140569 c-0.42560778829326046,0 -0.7869187616223091,0.14854926869355356 -1.0841438675428117,0.4457743746140569 L1.1221755018620865,12.519336241411066 C0.8170187678488864,12.824366406890869 0.6645036851089845,13.189811952310794 0.6645036851089845,13.615419740604061 c0,0.4337081744304833 0.15268384078442856,0.7949769582484026 0.4576718167531007,1.0839751094982861 l0.9033196228337613,0.9034040018560227 c0.28916690929441163,0.3050301654798063 0.6505622616457223,0.45784057479762846 1.0841438675428117,0.45784057479762846 c0.4336237954082208,0 0.7949347687372679,-0.15276821980669164 1.0841438675428117,-0.45784057479762846 L10.047872855836959,9.760732866575314 L15.90200504140358,15.602672283424969 c0.2889137722276228,0.3049457864575423 0.6502669350678055,0.45784057479762846 1.0842704360762054,0.45784057479762846 c0.4253546512264731,0 0.7909267651797915,-0.15289478834008471 1.0958725516373322,-0.45784057479762846 l0.9032352438114986,-0.9033618123448973 c0.29714072689823834,-0.29714072689823834 0.4458165641251876,-0.6584938897384236 0.4458165641251876,-1.0839751094982861 C19.4311998370538,13.189643194266276 19.278726943825028,12.824239838357478 18.973401451767312,12.519336241411066 z" fill="#b2b2b2" id="svg_2"/>
</g><g id="svg_3">
</g><g id="svg_4">
</g><g id="svg_5">
</g><g id="svg_6">
</g><g id="svg_7">
</g><g id="svg_8">
</g><g id="svg_9">
</g><g id="svg_10">
</g><g id="svg_11">
</g><g id="svg_12">
</g><g id="svg_13">
</g><g id="svg_14">
</g><g id="svg_15">
</g><g id="svg_16">
</g><g id="svg_17">
</g></g></svg>